<svg width="40" height="40" viewBox="0 0 40 40" fill="none" xmlns="http://www.w3.org/2000/svg">
<path d="M6.38751 31.9457V28.789H9.62126V16.7349C9.62126 14.3435 10.325 12.1993 11.7325 10.3024C13.1397 8.40542 14.9992 7.19695 17.3108 6.67695V5.74361C17.3108 4.99472 17.5722 4.3582 18.095 3.83403C18.6181 3.30959 19.2531 3.04736 20 3.04736C20.747 3.04736 21.382 3.30959 21.905 3.83403C22.4278 4.3582 22.6892 4.99472 22.6892 5.74361V6.67695C25.0031 7.1925 26.8642 8.39903 28.2725 10.2965C29.6811 12.1938 30.3854 14.3399 30.3854 16.7349V28.789H33.6192V31.9457H6.38751ZM20.0067 37.0419C19.0636 37.0419 18.2563 36.7061 17.5846 36.0344C16.9129 35.3628 16.5771 34.5554 16.5771 33.6124H23.4329C23.4329 34.5576 23.097 35.3656 22.425 36.0361C21.7531 36.7067 20.947 37.0419 20.0067 37.0419ZM12.7779 28.789H27.2221V16.7349C27.2221 14.7393 26.5185 13.0367 25.1113 11.6269C23.7038 10.2172 22 9.51236 20 9.51236C18 9.51236 16.2963 10.2172 14.8888 11.6269C13.4815 13.0367 12.7779 14.7393 12.7779 16.7349V28.789Z" fill="white"/>
</svg>
