<svg width="40" height="40" viewBox="0 0 40 40" fill="none" xmlns="http://www.w3.org/2000/svg">
<g clip-path="url(#clip0_232_40)">
<path d="M18.1112 30.6174L12.2158 24.7599L14.2679 22.7011L18.1112 26.489L25.5654 19.0344L27.6175 21.1211L18.1112 30.6174ZM7.8775 36.9457C7.01639 36.9457 6.275 36.6349 5.65333 36.0132C5.03167 35.3915 4.72083 34.6501 4.72083 33.789V8.98819C4.72083 8.12542 5.03167 7.38264 5.65333 6.75986C6.275 6.13681 7.01639 5.82528 7.8775 5.82528H10.1387V3.04736H13.245V5.82528H26.755V3.04736H29.8612V5.82528H32.1225C32.9853 5.82528 33.7282 6.13681 34.3512 6.75986C34.9743 7.38264 35.2858 8.12542 35.2858 8.98819V33.789C35.2858 34.6501 34.9743 35.3915 34.3512 36.0132C33.7282 36.6349 32.9853 36.9457 32.1225 36.9457H7.8775ZM7.8775 33.789H32.1225V16.3886H7.8775V33.789ZM7.8775 13.6111H32.1225V8.98819H7.8775V13.6111Z" fill="#696969"/>
</g>
<defs>
<clipPath id="clip0_232_40">
<rect width="40" height="40" fill="white"/>
</clipPath>
</defs>
</svg>
