<svg width="40" height="40" viewBox="0 0 40 40" fill="none" xmlns="http://www.w3.org/2000/svg">
<path d="M25.7938 28.0186L28.0108 25.8215L21.595 19.3765V11.3486H18.5717V20.5974L25.7938 28.0186ZM20.0008 36.9457C17.6689 36.9457 15.4728 36.5011 13.4125 35.6119C11.3519 34.7231 9.555 33.5119 8.02167 31.9786C6.48833 30.4456 5.27708 28.6489 4.38792 26.5886C3.49875 24.5283 3.05417 22.3324 3.05417 20.0007C3.05417 17.6688 3.49917 15.4724 4.38917 13.4115C5.27917 11.3507 6.49014 9.55417 8.02208 8.02195C9.55431 6.49 11.3506 5.27792 13.4108 4.3857C15.4714 3.49347 17.6678 3.04736 20 3.04736C22.3322 3.04736 24.5286 3.49347 26.5892 4.3857C28.6494 5.27792 30.4457 6.49 31.9779 8.02195C33.5099 9.55417 34.7219 11.3504 35.6142 13.4107C36.5064 15.4713 36.9525 17.6676 36.9525 19.9999C36.9525 22.3321 36.5064 24.5285 35.6142 26.589C34.7219 28.6493 33.5099 30.4456 31.9779 31.9778C30.4457 33.5097 28.6494 34.7207 26.5892 35.6107C24.5289 36.5007 22.3328 36.9457 20.0008 36.9457ZM19.9967 33.789C23.7942 33.789 27.0424 32.4425 29.7413 29.7494C32.4399 27.0561 33.7892 23.8074 33.7892 20.0032C33.7892 16.199 32.4401 12.9492 29.7421 10.2536C27.0438 7.55834 23.7964 6.2107 20 6.2107C16.2003 6.2107 12.9521 7.55806 10.2554 10.2528C7.55903 12.9478 6.21083 16.1968 6.21083 19.9999C6.21083 23.8063 7.55903 27.0561 10.2554 29.7494C12.9521 32.4425 16.1992 33.789 19.9967 33.789Z" fill="#696969"/>
</svg>
