<svg width="100" height="100" viewBox="0 0 100 100" fill="none" xmlns="http://www.w3.org/2000/svg">
<path d="M46.7365 70.8333H53.6803V45.8333H46.7365V70.8333ZM49.999 37.9166C51.0414 37.9166 51.9157 37.5704 52.6219 36.878C53.3275 36.1864 53.6803 35.3287 53.6803 34.3051C53.6803 33.2426 53.3278 32.352 52.623 31.6333C51.9174 30.9145 51.0434 30.5551 50.0011 30.5551C48.9587 30.5551 48.0844 30.9145 47.3782 31.6333C46.6726 32.352 46.3198 33.2426 46.3198 34.3051C46.3198 35.3287 46.6723 36.1864 47.3771 36.878C48.0827 37.5704 48.9566 37.9166 49.999 37.9166ZM50.0188 91.6666C44.2667 91.6666 38.8615 90.5728 33.8032 88.3853C28.7448 86.1978 24.3289 83.2176 20.5553 79.4447C16.7823 75.6711 13.8021 71.2534 11.6146 66.1916C9.42712 61.1298 8.33337 55.7211 8.33337 49.9655C8.33337 44.21 9.42712 38.801 11.6146 33.7385C13.8021 28.6767 16.7823 24.2708 20.5553 20.5208C24.3289 16.7708 28.7466 13.802 33.8084 11.6145C38.8702 9.427 44.2789 8.33325 50.0344 8.33325C55.79 8.33325 61.199 9.427 66.2615 11.6145C71.3233 13.802 75.7292 16.7708 79.4792 20.5208C83.2292 24.2708 86.198 28.6805 88.3855 33.7499C90.573 38.8194 91.6667 44.2298 91.6667 49.9812C91.6667 55.7333 90.573 61.1385 88.3855 66.1968C86.198 71.2551 83.2292 75.6666 79.4792 79.4312C75.7292 83.1958 71.3195 86.1763 66.25 88.3728C61.1806 90.5687 55.7702 91.6666 50.0188 91.6666ZM50.0344 84.7218C59.6872 84.7218 67.8816 81.3423 74.6178 74.5833C81.3539 67.8242 84.7219 59.6183 84.7219 49.9655C84.7219 40.3128 81.3584 32.1183 74.6313 25.3822C67.9035 18.6461 59.6931 15.278 50 15.278C40.3702 15.278 32.1757 18.6416 25.4167 25.3687C18.6577 32.0964 15.2782 40.3069 15.2782 49.9999C15.2782 59.6298 18.6577 67.8242 25.4167 74.5833C32.1757 81.3423 40.3816 84.7218 50.0344 84.7218Z" fill="#696969" fill-opacity="0.2"/>
</svg>
