<svg width="40" height="40" viewBox="0 0 40 40" fill="none" xmlns="http://www.w3.org/2000/svg">
<path d="M20.06 29.8055C20.5686 29.8055 21.0023 29.6261 21.3612 29.2672C21.7201 28.9083 21.8996 28.473 21.8996 27.9614C21.8996 27.4497 21.7201 27.0165 21.3612 26.6618C21.0023 26.3071 20.5675 26.1297 20.0566 26.1297C19.5461 26.1297 19.1123 26.3069 18.7554 26.6614C18.3987 27.0155 18.2204 27.45 18.2204 27.9647C18.2204 28.4741 18.3991 28.9083 18.7566 29.2672C19.1139 29.6261 19.5483 29.8055 20.06 29.8055ZM18.4983 23.6114H21.3308C21.3308 22.8419 21.4264 22.169 21.6175 21.5926C21.8083 21.0165 22.3683 20.3252 23.2975 19.5189C24.0969 18.8233 24.6848 18.1308 25.0612 17.4414C25.4373 16.7519 25.6254 15.9705 25.6254 15.0972C25.6254 13.5761 25.1222 12.3754 24.1158 11.4951C23.1091 10.6148 21.8179 10.1747 20.2421 10.1747C18.7848 10.1747 17.5314 10.5548 16.4816 11.3151C15.4319 12.0754 14.6782 13.0639 14.2204 14.2805L16.7887 15.2593C17.0476 14.5654 17.4557 13.98 18.0129 13.503C18.5701 13.0258 19.2711 12.7872 20.1158 12.7872C20.973 12.7872 21.6562 13.0255 22.1654 13.5022C22.6748 13.9786 22.9296 14.5657 22.9296 15.2634C22.9296 15.8287 22.7586 16.369 22.4166 16.8843C22.075 17.3998 21.608 17.9037 21.0158 18.3959C20.0708 19.2254 19.415 19.9794 19.0483 20.658C18.6816 21.3369 18.4983 22.3214 18.4983 23.6114ZM20.0008 36.9459C17.6689 36.9459 15.4725 36.5021 13.4116 35.6143C11.3508 34.7265 9.55317 33.5155 8.01872 31.9814C6.48455 30.4469 5.27358 28.6496 4.3858 26.5893C3.49803 24.529 3.05414 22.3329 3.05414 20.0009C3.05414 17.6507 3.49803 15.445 4.3858 13.3839C5.27358 11.323 6.48428 9.52997 8.01789 8.00469C9.5515 6.47941 11.3486 5.27191 13.4091 4.38219C15.4697 3.49247 17.6661 3.04761 19.9983 3.04761C22.3491 3.04761 24.5554 3.49233 26.6171 4.38177C28.6784 5.27122 30.4715 6.4783 31.9962 8.00302C33.5212 9.52747 34.7284 11.3202 35.6179 13.3814C36.5076 15.4425 36.9525 17.6487 36.9525 20.0001C36.9525 22.3326 36.5076 24.5293 35.6179 26.5901C34.7282 28.6509 33.5207 30.4483 31.9954 31.9822C30.4701 33.5158 28.6773 34.7265 26.6171 35.6143C24.5568 36.5021 22.3514 36.9459 20.0008 36.9459ZM20 33.7893C23.8439 33.7893 27.103 32.4489 29.7775 29.768C32.4519 27.0869 33.7891 23.8309 33.7891 20.0001C33.7891 16.1562 32.4519 12.8971 29.7775 10.2226C27.103 7.54816 23.8427 6.21094 19.9966 6.21094C16.1691 6.21094 12.9146 7.54816 10.2329 10.2226C7.5515 12.8971 6.2108 16.1573 6.2108 20.0034C6.2108 23.8309 7.55122 27.0855 10.2321 29.7672C12.9132 32.4486 16.1691 33.7893 20 33.7893Z" fill="#696969"/>
</svg>
