<svg width="24" height="24" viewBox="0 0 24 24" fill="none" xmlns="http://www.w3.org/2000/svg">
<path d="M2.47056 21.5191H4.05948L18.174 7.4123L16.6007 5.82963L2.47056 19.9469V21.5191ZM0 24V18.9321L18.2826 0.656251C18.493 0.447543 18.7376 0.285991 19.0163 0.171594C19.2951 0.0571979 19.5864 0 19.8905 0C20.1773 0 20.4612 0.0571979 20.7423 0.171594C21.0235 0.285991 21.2781 0.448526 21.5062 0.659199L23.35 2.49205C23.575 2.71888 23.7397 2.97431 23.844 3.25833C23.948 3.54236 24 3.8277 24 4.11434C24 4.40645 23.9443 4.69549 23.8328 4.98148C23.7214 5.26747 23.5604 5.51755 23.35 5.73172L5.07329 24H0ZM17.3859 6.61851L16.6007 5.82963L18.174 7.4123L17.3859 6.61851Z" fill="#696969"/>
</svg>
