<svg width="40" height="40" viewBox="0 0 40 40" fill="none" xmlns="http://www.w3.org/2000/svg">
<path d="M19.9988 19.8296C18.0826 19.8296 16.4925 19.1975 15.2283 17.9333C13.9642 16.6692 13.3321 15.079 13.3321 13.1629C13.3321 11.2468 13.9642 9.65679 15.2283 8.3929C16.4925 7.12901 18.0826 6.49707 19.9988 6.49707C21.9149 6.49707 23.5065 7.12901 24.7738 8.3929C26.041 9.65679 26.6746 11.2468 26.6746 13.1629C26.6746 15.079 26.041 16.6692 24.7738 17.9333C23.5065 19.1975 21.9149 19.8296 19.9988 19.8296ZM6.3875 33.755V29.2908C6.3875 28.223 6.65875 27.2847 7.20125 26.4758C7.74347 25.6672 8.45028 25.0521 9.32167 24.6304C11.1519 23.7812 12.9438 23.1437 14.6971 22.7179C16.4504 22.2923 18.2175 22.0796 19.9983 22.0796C21.7917 22.0796 23.56 22.2965 25.3033 22.7304C27.0467 23.1643 28.8283 23.7983 30.6483 24.6325C31.545 25.0505 32.2643 25.6628 32.8063 26.4692C33.3482 27.2755 33.6192 28.2155 33.6192 29.2892V33.755H6.3875ZM9.54417 30.5987H30.4558V29.3329C30.4558 28.9396 30.3425 28.569 30.1158 28.2212C29.8889 27.8735 29.6042 27.6128 29.2617 27.4392C27.6072 26.6372 26.0436 26.0707 24.5708 25.7396C23.0978 25.4082 21.5731 25.2425 19.9967 25.2425C18.4336 25.2425 16.9019 25.4082 15.4017 25.7396C13.9011 26.0707 12.3385 26.6369 10.7138 27.4383C10.369 27.6119 10.0879 27.8728 9.87042 28.2208C9.65292 28.5686 9.54417 28.9393 9.54417 29.3329V30.5987ZM19.9983 16.6729C20.9983 16.6729 21.8339 16.3378 22.505 15.6675C23.1761 14.9975 23.5117 14.1623 23.5117 13.1621C23.5117 12.1598 23.1765 11.3246 22.5063 10.6562C21.8363 9.98763 21.0014 9.65332 20.0017 9.65332C19.0017 9.65332 18.1661 9.9879 17.495 10.6571C16.8239 11.326 16.4883 12.1597 16.4883 13.1583C16.4883 14.1597 16.8235 14.9958 17.4938 15.6667C18.1638 16.3375 18.9986 16.6729 19.9983 16.6729Z" fill="#696969"/>
</svg>
