<svg width="104" height="110" viewBox="0 0 104 110" fill="none" xmlns="http://www.w3.org/2000/svg">
<path d="M48.0639 76.2161H57.0799V59.1622H75.1119V50.7028H57.0799V33.7839H48.0639V50.7028H29.8881V59.1622H48.0639V76.2161ZM21.016 93C18.6024 93 16.4962 92.1564 14.6973 90.4692C12.8991 88.7814 12 86.8051 12 84.5406V25.4594C12 23.1949 12.8991 21.2186 14.6973 19.5308C16.4962 17.8436 18.6024 17 21.016 17H83.984C86.3976 17 88.5038 17.8436 90.3027 19.5308C92.1009 21.2186 93 23.1949 93 25.4594V84.5406C93 86.8051 92.1009 88.7814 90.3027 90.4692C88.5038 92.1564 86.3976 93 83.984 93H21.016ZM21.016 84.5406H83.984V25.4594H21.016V84.5406Z" fill="white"/>
</svg>
