<svg width="40" height="40" viewBox="0 0 40 40" fill="none" xmlns="http://www.w3.org/2000/svg">
<path d="M20.06 29.8053C20.5686 29.8053 21.0024 29.6258 21.3612 29.2669C21.7201 28.9081 21.8996 28.4728 21.8996 27.9611C21.8996 27.4494 21.7201 27.0163 21.3612 26.6615C21.0024 26.3068 20.5675 26.1294 20.0567 26.1294C19.5461 26.1294 19.1124 26.3067 18.7554 26.6611C18.3988 27.0153 18.2204 27.4497 18.2204 27.9644C18.2204 28.4739 18.3992 28.9081 18.7567 29.2669C19.1139 29.6258 19.5483 29.8053 20.06 29.8053ZM18.4983 23.6111H21.3308C21.3308 22.8417 21.4264 22.1688 21.6175 21.5924C21.8083 21.0163 22.3683 20.325 23.2975 19.5186C24.0969 18.8231 24.6849 18.1306 25.0613 17.4411C25.4374 16.7517 25.6254 15.9703 25.6254 15.0969C25.6254 13.5758 25.1222 12.3751 24.1158 11.4949C23.1092 10.6146 21.8179 10.1744 20.2421 10.1744C18.7849 10.1744 17.5314 10.5546 16.4817 11.3149C15.4319 12.0751 14.6782 13.0636 14.2204 14.2803L16.7888 15.259C17.0476 14.5651 17.4557 13.9797 18.0129 13.5028C18.5701 13.0256 19.2711 12.7869 20.1158 12.7869C20.9731 12.7869 21.6562 13.0253 22.1654 13.5019C22.6749 13.9783 22.9296 14.5654 22.9296 15.2632C22.9296 15.8285 22.7586 16.3688 22.4167 16.884C22.075 17.3996 21.6081 17.9035 21.0158 18.3957C20.0708 19.2251 19.415 19.9792 19.0483 20.6578C18.6817 21.3367 18.4983 22.3211 18.4983 23.6111ZM20.0008 36.9457C17.6689 36.9457 15.4725 36.5018 13.4117 35.614C11.3508 34.7263 9.55319 33.5153 8.01875 31.9811C6.48458 30.4467 5.27361 28.6493 4.38583 26.589C3.49806 24.5288 3.05417 22.3326 3.05417 20.0007C3.05417 17.6504 3.49806 15.4447 4.38583 13.3836C5.27361 11.3228 6.48431 9.52972 8.01792 8.00445C9.55153 6.47917 11.3486 5.27167 13.4092 4.38195C15.4697 3.49222 17.6661 3.04736 19.9983 3.04736C22.3492 3.04736 24.5554 3.49208 26.6171 4.38153C28.6785 5.27097 30.4715 6.47806 31.9963 8.00278C33.5212 9.52722 34.7285 11.32 35.6179 13.3811C36.5076 15.4422 36.9525 17.6485 36.9525 19.9999C36.9525 22.3324 36.5076 24.529 35.6179 26.5899C34.7282 28.6507 33.5207 30.4481 31.9954 31.9819C30.4701 33.5156 28.6774 34.7263 26.6171 35.614C24.5568 36.5018 22.3514 36.9457 20.0008 36.9457ZM20 33.789C23.8439 33.789 27.1031 32.4486 29.7775 29.7678C32.4519 27.0867 33.7892 23.8307 33.7892 19.9999C33.7892 16.156 32.4519 12.8968 29.7775 10.2224C27.1031 7.54792 23.8428 6.2107 19.9967 6.2107C16.1692 6.2107 12.9146 7.54792 10.2329 10.2224C7.55153 12.8968 6.21083 16.1571 6.21083 20.0032C6.21083 23.8307 7.55125 27.0853 10.2321 29.7669C12.9132 32.4483 16.1692 33.789 20 33.789Z" fill="#696969"/>
</svg>
